<svg xmlns="http://www.w3.org/2000/svg" viewBox="0 0 1500 1500">
  <path fill="#f07d21" d="M 985.652344 386.046875 C 1011.003906 384.613281 1161.789062 375.71875 1169.484375 399.910156 C 1161.828125 436.355469 1095.914062 542.136719 1074.03125 580.695312 C 1026.707031 665.222656 978.921875 749.496094 930.6875 833.503906 C 966.101562 896.140625 1001.84375 958.585938 1037.910156 1020.847656 C 1051.207031 1043.890625 1102.667969 1124.148438 1099.125 1144.316406 C 1092.148438 1153.972656 1095.699219 1150.699219 1083.332031 1156.023438 C 1044.414062 1156.582031 947.253906 1164.699219 913.285156 1153.667969 C 883.921875 1144.140625 748.050781 879.292969 722.1875 831.386719 C 776.707031 732.222656 832.121094 633.558594 888.4375 535.40625 C 907.023438 503.03125 959.0625 402.679688 985.652344 386.046875 Z"/>
  <path fill="#185053" d="M 370.832031 393.007812 C 426.609375 389.878906 498.878906 390.121094 553.820312 395.410156 C 576.582031 397.605469 624.789062 496.195312 637.53125 519.074219 C 672.308594 581.457031 707.492188 643.621094 743.078125 705.550781 L 631.085938 903.597656 C 615.71875 930.726562 577.382812 1003.199219 558.382812 1022.152344 C 529.410156 1026.886719 375.789062 1034.726562 360.441406 1009.355469 C 366.285156 979.75 503.429688 744.078125 527.148438 703.121094 C 483.5 642.074219 404.289062 484.957031 362.503906 414.355469 C 359.046875 408.515625 366.890625 399.011719 370.832031 393.007812 Z"/>
</svg>
