<?xml version="1.0" encoding="utf-8" ?><svg xmlns="http://www.w3.org/2000/svg" xmlns:xlink="http://www.w3.org/1999/xlink" viewBox="243 297 845 177"><path fill="#F07D21" d="M377.739 309.881C382.775 309.596 412.728 307.829 414.257 312.635C412.736 319.874 399.642 340.887 395.295 348.546C385.894 365.337 376.402 382.077 366.82 398.765C373.855 411.207 380.955 423.611 388.12 435.979C390.761 440.556 400.984 456.499 400.28 460.505C398.894 462.423 399.599 461.773 397.143 462.831C389.412 462.942 370.111 464.554 363.363 462.363C357.53 460.47 330.54 407.86 325.402 398.344C336.232 378.646 347.24 359.047 358.427 339.55C362.119 333.119 372.457 313.185 377.739 309.881Z"/><path fill="white" d="M629.256 354.609C638.865 353.481 649.231 354.323 657.758 359.181C666.379 364.165 672.639 372.401 675.135 382.043C678.067 392.846 676.577 404.371 670.993 414.071C659.818 433.168 637.579 436.918 619.147 425.946C618.132 425.17 618.213 425.209 616.963 424.944C616.516 427.284 616.648 452.606 616.561 457.5L598.524 457.561L598.415 413.723C598.266 385.688 595.081 362.342 629.256 354.609ZM641.675 415.329C667.418 406.809 662.318 368.363 633.05 370.967C608.043 377.83 610.775 417.754 641.675 415.329Z"/><path fill="#185053" d="M255.606 311.264C266.686 310.642 281.042 310.69 291.956 311.741C296.478 312.177 306.054 331.761 308.585 336.306C315.494 348.698 322.483 361.046 329.552 373.348L307.305 412.688C304.252 418.077 296.637 432.473 292.863 436.238C287.107 437.179 256.591 438.736 253.542 433.696C254.703 427.815 281.946 381.001 286.658 372.865C277.987 360.739 262.252 329.529 253.952 315.504C253.265 314.344 254.823 312.456 255.606 311.264Z"/><path fill="white" d="M990.068 353.999C992.966 353.699 995.883 353.643 998.791 353.832C1007.51 354.414 1014.57 358.642 1020.28 365.048C1027.13 358.117 1034.47 353.627 1044.7 353.711C1085.63 354.048 1078.23 400.908 1078.17 429.822C1071.98 429.976 1065.46 429.906 1059.24 429.94C1059.03 417.374 1061.67 382.968 1054.18 375.158C1051.36 372.269 1047.49 370.633 1043.45 370.617C1026.23 370.376 1028.14 389.53 1028.19 401.158L1028.22 429.793C1022.34 430.041 1015.57 429.915 1009.62 429.943C1009.79 415.139 1010.6 399.152 1009.23 384.544C1007.3 366.129 981.365 365.744 979.395 383.837C977.789 398.584 978.902 414.86 978.635 429.749L960.036 429.923C959.626 400 951.329 360.09 990.068 353.999Z"/><path fill="white" d="M436.375 325.794L506.114 325.741L506.105 342.16C493.18 343.19 469.453 342.474 455.787 342.56L455.965 368.908C469.891 368.715 484.108 368.831 498.059 368.798L498.049 384.821C492.937 384.898 457.373 384.422 456.102 385.305L455.962 387.774C456.056 396.645 455.548 405.03 455.918 414.039C466.271 413.209 495.958 413.306 506.489 413.97C506.727 418.79 506.591 424.704 506.602 429.611C499.497 430.139 488.863 429.874 481.543 429.887L436.35 429.945L436.375 325.794Z"/><path fill="white" d="M718.752 354.105L720.545 354.111C748.027 354.307 757.276 372.606 756.579 397.504C738.219 397.904 719.516 397.364 701.015 397.687C704.649 413.478 717.002 418.65 732.072 414.914C737.684 413.522 739.867 410.084 744.459 408.438L745.913 409.87L752.259 420.27C745.253 426.885 736.205 430.916 726.603 431.699C715.063 432.727 704.04 430.163 695.12 422.483C687.304 415.671 682.526 406.023 681.848 395.676C680.158 372.028 695.309 355.375 718.752 354.105ZM701.809 383.58L725.32 383.554L738.739 383.445C734.833 372.482 728.909 367.897 716.948 369.035C707.907 372.004 705.187 374.734 701.809 383.58Z"/><path fill="white" d="M876.02 355.394C882.137 355.186 888.901 355.318 895.069 355.312C895.246 370.347 893.934 387.101 895.733 401.782C898.538 420.521 926.707 419.984 928.709 401.626C930.318 386.871 929.337 370.279 929.344 355.399C935.676 355.256 942.009 355.246 948.341 355.37L948.357 371.2C948.477 387.611 950.993 409.479 938.735 422.123C925.52 435.755 898.876 435.369 885.57 421.974C881.69 418.052 878.89 413.192 877.444 407.867C874.824 398.349 875.918 367.214 876.02 355.394Z"/><path fill="white" d="M567.702 355.35C575.155 355.24 582.61 355.286 590.061 355.489C583.708 365.58 570.53 382.777 563.253 392.379C571.761 404.804 582.188 416.555 590.915 429.864C583.625 430.043 575.747 429.914 568.409 429.926C562.904 421.602 557.339 413.319 551.713 405.077C546.352 413.278 540.579 421.557 535.052 429.675C527.453 429.836 519.853 429.935 512.252 429.972C519.876 418.523 531.592 403.397 539.874 392.387C531.251 380.65 521.531 367.682 513.735 355.442C520.893 355.289 528.054 355.308 535.212 355.499C540.695 363.536 546.219 371.543 551.785 379.522C555.792 372.625 563.14 362.233 567.702 355.35Z"/><path fill="white" d="M826.319 337.989L844.162 337.953L844.495 355.518L867.674 355.453C867.834 360.078 867.668 365.462 867.628 370.146L844.544 370.158C844.461 379.481 843.525 398.31 845.541 406.77C848.084 417.441 862.868 412.953 867.749 415.313C869.308 417.48 868.748 417.8 868.763 421.062L868.575 430.024C866.207 430.084 863.837 430.127 861.468 430.152C818.859 430.547 825.962 401.802 826.207 369.978C821.619 369.724 815.697 369.874 811.002 369.869C811.095 365.16 810.997 360.155 810.983 355.419C815.897 355.284 821.278 355.385 826.233 355.377L826.319 337.989Z"/><path fill="white" d="M802.576 353.43C804.492 353.376 804.861 353.326 806.652 353.971C808.973 356.94 807.839 365.517 807.749 369.839C782.517 371.249 782.879 382.591 783.389 404.57C783.581 412.838 783.53 421.632 783.443 429.933L771.914 429.996C769.101 430.061 767.564 430.215 764.827 429.503C764.722 428.899 764.459 427.565 764.487 426.961C766.187 391.171 754.097 356.289 802.576 353.43Z"/></svg>